<?xml version="1.0" encoding="UTF-8" ?>
<!DOCTYPE svg PUBLIC "-//W3C//DTD SVG 1.1//EN" "http://www.w3.org/Graphics/SVG/1.1/DTD/svg11.dtd">
<svg width="1107pt" height="376pt" viewBox="0 0 1107 376" version="1.1" xmlns="http://www.w3.org/2000/svg">
<g id="#ffffffff">
<path fill="#ffffff" opacity="1.00" d=" M 402.14 0.00 L 404.42 0.00 C 419.54 26.36 434.91 52.59 450.12 78.90 C 451.46 80.64 449.98 82.64 449.28 84.31 C 444.43 93.34 440.89 103.01 435.86 111.95 C 435.32 112.78 434.71 113.55 434.02 114.27 C 433.15 113.38 432.37 112.42 431.68 111.40 C 421.83 95.66 413.38 79.08 403.28 63.51 C 395.73 77.42 388.21 91.35 380.62 105.25 C 376.74 100.99 375.53 95.21 372.80 90.28 C 370.38 85.07 367.21 80.19 365.31 74.76 C 363.63 68.98 367.78 64.06 370.36 59.32 C 380.93 39.53 391.83 19.93 402.14 0.00 Z" />
<path fill="#ffffff" opacity="1.00" d=" M 328.40 66.15 C 328.97 66.14 330.09 66.11 330.65 66.10 C 332.62 72.72 336.57 78.48 339.03 84.90 C 340.96 89.79 343.82 94.26 345.73 99.17 C 347.70 104.34 350.71 109.02 352.73 114.17 C 354.70 119.34 357.71 124.02 359.73 129.17 C 361.70 134.34 364.71 139.02 366.73 144.17 C 368.70 149.34 371.71 154.02 373.73 159.17 C 375.60 164.09 378.44 168.57 380.43 173.44 C 382.91 179.81 386.56 185.62 388.94 192.03 C 393.10 200.01 396.36 208.40 400.53 216.38 C 402.92 222.76 406.50 228.59 409.03 234.90 C 428.79 277.16 448.53 319.42 468.21 361.72 C 469.49 364.28 470.81 366.83 472.22 369.33 C 471.06 370.38 469.63 371.01 468.04 370.84 C 456.13 370.71 444.21 370.96 432.30 370.73 C 425.20 356.11 418.20 341.42 411.46 326.62 C 406.51 317.36 402.76 307.53 397.78 298.29 C 394.88 290.81 390.80 283.88 387.57 276.55 C 385.26 270.43 381.69 264.89 379.27 258.83 C 376.70 252.30 372.89 246.34 370.27 239.83 C 367.70 233.30 363.89 227.34 361.27 220.83 C 358.60 214.06 354.62 207.89 351.97 201.11 C 349.74 195.52 346.47 190.42 344.27 184.83 C 341.60 178.06 337.62 171.89 334.97 165.11 C 333.66 161.81 332.07 158.63 330.24 155.60 C 324.99 164.93 321.35 175.06 316.56 184.62 C 306.00 207.43 295.64 230.32 285.02 253.10 C 283.59 256.81 281.79 260.37 279.85 263.84 C 266.91 263.75 253.96 263.87 241.03 263.80 C 239.72 263.93 238.75 263.04 237.79 262.33 C 241.12 256.84 243.07 250.69 246.05 245.02 C 248.16 239.54 251.18 234.45 253.15 228.91 C 241.28 223.74 226.86 222.70 215.27 229.19 C 201.77 236.09 195.79 251.57 193.51 265.73 C 192.32 270.55 193.31 275.56 192.26 280.40 C 191.51 283.93 193.20 287.41 192.82 290.98 C 192.50 296.08 194.01 301.00 194.93 305.96 C 197.61 317.70 203.80 329.30 214.33 335.72 C 220.28 339.46 227.40 340.11 234.21 340.81 C 244.26 340.33 254.49 339.05 263.73 334.79 C 269.48 332.23 274.67 328.53 279.36 324.36 C 283.19 320.92 285.60 316.29 287.78 311.71 C 289.95 307.20 292.43 302.83 294.27 298.17 C 296.89 291.66 300.70 285.70 303.27 279.17 C 305.59 273.38 308.87 268.04 311.37 262.33 C 314.56 254.11 319.32 246.62 322.47 238.38 C 325.13 233.50 326.80 227.91 330.71 223.83 C 333.11 228.33 335.46 232.87 337.33 237.62 C 340.72 245.41 345.20 252.70 348.33 260.62 C 349.67 263.81 351.30 266.87 352.89 269.94 C 348.66 280.07 343.57 289.83 339.67 300.10 C 348.40 300.27 357.14 300.20 365.88 300.14 C 367.01 301.69 368.07 303.32 368.76 305.14 C 371.58 312.38 375.80 318.97 378.73 326.17 C 380.55 330.71 382.83 335.05 385.22 339.32 C 384.07 340.38 382.63 341.01 381.04 340.84 C 360.35 340.79 339.67 340.81 318.98 340.82 C 317.06 344.70 315.64 348.82 313.57 352.63 C 310.34 358.55 308.34 365.05 304.85 370.84 C 290.60 370.72 276.35 370.92 262.11 370.76 C 260.47 370.94 260.29 369.19 260.63 368.05 C 251.64 370.51 242.29 371.18 233.00 370.80 C 214.41 371.83 195.14 366.29 180.85 354.14 C 176.19 349.47 171.02 345.14 167.67 339.36 C 159.36 327.78 155.62 313.65 153.41 299.76 C 152.83 289.86 153.03 279.92 153.25 270.00 C 154.42 258.95 157.75 248.22 162.13 238.04 C 171.29 219.04 188.12 203.46 208.65 197.76 C 227.55 192.63 248.49 192.28 266.68 200.19 C 269.72 191.71 274.13 183.78 277.57 175.45 C 294.54 139.02 311.11 102.42 328.40 66.15 Z" />
<path fill="#ffffff" opacity="1.00" d=" M 460.12 95.04 C 460.79 95.06 462.12 95.09 462.78 95.10 C 505.04 171.44 547.88 247.49 588.93 324.46 C 589.65 317.64 589.08 310.80 588.25 304.02 C 588.08 281.68 588.26 259.34 588.17 237.00 C 587.59 219.97 592.24 203.05 600.09 188.03 C 605.20 178.77 612.17 170.72 617.85 161.82 C 618.99 160.02 620.22 158.23 621.93 156.91 C 623.49 160.39 622.66 164.32 622.83 168.00 C 622.78 224.01 622.83 280.02 622.81 336.03 C 622.08 346.63 616.54 356.66 608.71 363.72 C 601.35 370.95 591.18 374.13 581.29 376.00 L 579.05 376.00 C 570.99 361.67 563.52 346.99 555.27 332.76 C 524.83 278.25 492.81 224.64 461.28 170.76 C 454.61 186.80 447.25 202.55 440.49 218.56 C 439.53 221.03 438.05 223.25 436.36 225.27 C 431.82 217.33 428.81 208.65 424.43 200.63 C 422.12 195.40 418.26 189.57 420.82 183.72 C 433.90 154.15 446.93 124.56 460.12 95.04 Z" />
<path fill="#ffffff" opacity="1.00" d=" M 20.38 214.38 C 29.98 203.08 44.47 196.80 59.03 195.25 C 67.02 194.79 75.03 195.04 83.03 195.03 C 90.23 194.97 97.33 196.65 104.10 198.99 C 117.11 203.36 128.94 212.63 134.62 225.35 C 137.42 231.38 139.95 237.83 139.80 244.59 C 127.89 245.04 115.96 244.76 104.06 244.79 C 101.15 245.26 100.87 241.95 100.10 239.99 C 98.54 234.29 94.94 228.91 89.33 226.59 C 79.78 222.47 68.59 222.07 58.83 225.71 C 53.40 227.61 49.35 233.14 49.70 238.96 C 49.44 243.80 49.87 249.75 54.49 252.54 C 66.58 260.61 81.51 261.81 95.10 266.02 C 108.70 270.30 122.87 275.48 132.72 286.28 C 141.58 294.17 144.59 306.55 144.86 318.00 C 144.60 328.21 141.94 338.58 135.91 346.95 C 129.04 355.68 119.88 362.88 109.12 366.05 C 98.55 369.93 87.23 371.40 76.00 370.81 C 64.55 371.46 53.00 369.83 42.30 365.66 C 27.57 360.07 16.03 348.18 8.44 334.62 C 4.92 327.79 2.82 320.37 0.00 313.25 L 0.00 306.79 C 12.24 310.38 24.85 312.52 37.11 316.00 C 45.39 319.14 45.54 329.89 52.32 334.72 C 59.58 340.41 69.12 341.48 78.00 342.17 C 85.30 341.58 93.29 341.04 99.27 336.31 C 107.28 330.15 106.85 317.40 101.27 309.75 C 97.56 306.12 92.61 304.06 87.89 302.03 C 73.56 296.70 58.06 295.14 44.02 288.91 C 35.55 285.85 27.66 281.12 21.28 274.72 C 12.94 267.00 9.56 255.09 10.12 243.98 C 9.96 233.29 13.85 222.77 20.38 214.38 Z" />
<path fill="#ffffff" opacity="1.00" d=" M 985.83 210.83 C 997.28 200.00 1013.34 194.60 1028.99 195.01 C 1036.91 195.08 1044.85 194.72 1052.75 195.42 C 1066.12 197.61 1079.52 203.00 1088.71 213.30 C 1096.41 221.76 1102.02 232.98 1101.75 244.61 C 1093.49 245.00 1085.22 244.76 1076.96 244.84 C 1069.53 244.88 1063.06 239.76 1059.48 233.55 C 1054.50 225.08 1043.82 223.66 1034.91 223.16 C 1027.69 223.40 1019.36 224.58 1014.68 230.74 C 1011.27 234.90 1011.21 240.66 1012.21 245.68 C 1013.40 250.90 1018.34 254.12 1022.96 256.12 C 1028.36 258.28 1033.93 260.07 1039.57 261.55 C 1053.91 264.80 1068.34 268.63 1081.31 275.75 C 1089.82 280.05 1097.22 286.65 1101.93 295.00 C 1104.61 299.90 1105.49 305.48 1107.00 310.80 L 1107.00 325.49 C 1105.08 331.31 1104.04 337.50 1100.78 342.80 C 1098.15 347.93 1093.66 351.65 1089.69 355.70 C 1087.00 358.44 1083.76 360.59 1080.32 362.27 C 1067.94 368.60 1053.85 371.37 1040.00 370.82 C 1032.37 370.67 1024.66 371.41 1017.14 369.77 C 1001.60 367.41 985.85 360.73 976.06 347.97 C 968.80 338.65 963.26 327.01 964.05 314.95 C 968.01 315.52 971.97 316.23 975.99 316.18 C 981.69 316.10 987.30 317.25 993.00 317.26 C 1000.16 317.41 1006.16 322.41 1009.50 328.46 C 1012.89 334.96 1019.89 338.54 1026.72 340.34 C 1033.15 341.60 1039.78 342.91 1046.31 341.55 C 1052.83 340.61 1060.45 339.25 1064.36 333.31 C 1068.04 328.48 1067.65 322.00 1066.76 316.34 C 1065.69 310.24 1060.28 306.26 1054.92 304.00 C 1048.06 301.08 1040.89 298.93 1033.63 297.26 C 1021.32 294.42 1009.14 290.68 997.74 285.17 C 990.00 280.64 982.22 275.31 977.78 267.27 C 970.49 255.00 970.90 239.57 975.52 226.43 C 977.86 220.62 981.60 215.42 985.83 210.83 Z" />
<path fill="#ffffff" opacity="1.00" d=" M 648.01 200.01 C 674.35 200.01 700.69 199.96 727.02 200.03 C 756.19 201.13 783.10 221.78 792.73 249.16 C 795.17 255.92 796.74 262.98 797.69 270.10 C 798.02 275.06 797.71 280.03 797.81 285.00 C 798.77 302.89 792.84 320.56 783.72 335.76 C 775.94 346.51 766.29 356.48 753.97 361.91 C 744.22 367.38 733.09 369.85 722.04 370.80 C 697.38 370.85 672.72 370.75 648.06 370.85 C 647.93 313.90 648.03 256.96 648.01 200.01 M 685.86 230.86 C 685.78 266.95 685.78 303.05 685.86 339.14 C 697.24 339.20 708.63 339.25 720.01 339.14 C 728.56 337.86 737.34 334.86 743.37 328.37 C 753.11 319.33 756.72 305.80 758.18 293.03 C 758.22 287.01 758.22 280.99 758.18 274.97 C 756.89 262.68 752.73 250.07 743.65 241.32 C 736.79 235.34 728.08 231.61 719.03 230.81 C 707.97 230.82 696.92 230.77 685.86 230.86 Z" />
<path fill="#ffffff" opacity="1.00" d=" M 818.01 200.01 C 858.69 200.06 899.38 199.85 940.07 200.12 C 939.05 208.20 935.95 216.25 930.08 222.05 C 926.07 225.23 921.94 228.64 916.81 229.74 C 911.69 231.37 906.27 230.72 901.01 230.81 C 885.62 230.85 870.24 230.75 854.86 230.86 C 854.78 242.62 854.78 254.38 854.86 266.14 C 881.19 266.28 907.52 266.11 933.85 266.22 C 935.35 266.06 936.03 267.77 935.82 269.03 C 935.77 277.97 935.88 286.91 935.78 295.85 C 935.92 297.36 934.21 298.04 932.97 297.83 C 906.94 297.83 880.89 297.75 854.86 297.86 C 854.78 311.62 854.78 325.38 854.86 339.14 C 880.24 339.26 905.62 339.15 931.00 339.19 C 935.57 339.28 940.19 338.79 944.71 339.69 C 943.15 347.19 942.59 354.86 941.27 362.39 C 940.40 366.72 936.80 371.14 932.02 370.83 C 894.03 370.81 856.04 370.77 818.06 370.85 C 817.93 313.91 818.03 256.96 818.01 200.01 Z" />
</g>
</svg>
