<?xml version="1.0" encoding="UTF-8" ?>
<!DOCTYPE svg PUBLIC "-//W3C//DTD SVG 1.1//EN" "http://www.w3.org/Graphics/SVG/1.1/DTD/svg11.dtd">
<svg width="1107pt" height="376pt" viewBox="0 0 1107 376" version="1.1" xmlns="http://www.w3.org/2000/svg">
<g id="#000000ff">
<path fill="#000000" opacity="1.00" d=" M 402.84 0.00 L 403.99 0.00 C 416.97 22.97 430.44 45.65 443.58 68.52 C 445.82 72.66 448.89 76.51 450.32 80.99 C 447.43 87.15 444.12 93.11 441.64 99.46 C 438.91 104.27 437.31 109.79 433.58 113.98 C 423.38 96.63 413.27 79.22 403.21 61.79 C 401.36 66.42 399.04 70.83 396.45 75.08 C 391.19 85.07 385.57 94.86 380.51 104.94 C 377.18 100.29 375.80 94.66 373.02 89.73 C 370.59 84.61 367.64 79.73 365.59 74.45 C 363.81 69.83 367.40 65.63 369.47 61.80 C 380.70 41.25 391.68 20.58 402.84 0.00 Z" />
<path fill="#000000" opacity="1.00" d=" M 326.40 71.50 C 327.26 69.68 328.12 67.86 328.96 66.03 L 330.16 65.99 C 331.07 68.94 332.21 71.81 333.62 74.56 C 334.32 75.85 334.97 77.17 335.64 78.49 C 335.91 78.98 336.44 79.96 336.71 80.46 C 338.46 84.90 340.37 89.27 342.63 93.49 C 342.90 93.98 343.44 94.96 343.70 95.45 C 344.98 98.49 346.19 101.57 347.61 104.56 C 348.30 105.88 349.00 107.20 349.68 108.52 C 351.95 112.71 353.24 117.35 355.64 121.48 C 355.88 122.00 356.37 123.04 356.61 123.57 C 357.18 124.55 357.72 125.57 358.28 126.57 C 359.23 129.30 360.34 131.97 361.59 134.58 C 362.14 135.57 362.68 136.57 363.24 137.57 C 363.70 138.54 364.18 139.50 364.68 140.46 C 365.99 143.49 367.20 146.57 368.58 149.57 C 368.86 150.06 369.43 151.05 369.72 151.55 C 370.34 152.89 370.96 154.24 371.62 155.56 C 372.21 156.58 372.80 157.61 373.40 158.63 C 373.41 159.04 373.42 159.88 373.43 160.30 C 374.18 161.71 374.89 163.14 375.67 164.54 C 376.18 165.55 376.70 166.58 377.22 167.60 C 377.70 168.57 378.20 169.53 378.70 170.50 C 380.35 174.16 381.63 178.00 383.65 181.49 C 383.89 182.00 384.37 183.04 384.61 183.56 C 385.18 184.56 385.73 185.57 386.29 186.58 C 387.22 189.31 388.35 191.97 389.61 194.56 C 390.31 195.85 390.98 197.17 391.64 198.49 C 391.91 198.98 392.45 199.96 392.71 200.45 C 394.49 204.89 396.35 209.28 398.63 213.49 C 398.91 213.99 399.47 214.99 399.75 215.50 C 401.28 219.21 402.68 222.98 404.63 226.51 C 405.32 227.82 405.99 229.15 406.70 230.46 C 407.98 233.48 409.17 236.55 410.59 239.52 C 411.30 240.82 411.97 242.15 412.64 243.48 C 412.91 243.97 413.44 244.95 413.71 245.44 C 414.40 247.07 415.13 248.69 415.67 250.38 C 416.58 252.45 417.61 254.46 418.63 256.48 C 418.88 256.99 419.38 258.00 419.63 258.51 C 419.91 259.00 420.45 259.97 420.73 260.46 C 421.99 263.51 423.19 266.59 424.58 269.58 C 425.12 270.53 425.64 271.49 426.16 272.46 C 426.51 273.16 426.87 273.86 427.24 274.57 C 428.63 277.51 429.79 280.57 431.09 283.56 C 431.61 284.53 432.13 285.50 432.65 286.48 C 432.89 287.00 433.37 288.04 433.61 288.57 C 434.18 289.56 434.73 290.57 435.29 291.59 C 436.44 295.01 437.92 298.31 439.64 301.49 C 439.88 301.99 440.38 303.00 440.62 303.50 C 440.89 303.99 441.44 304.96 441.71 305.45 C 443.26 309.16 444.67 312.95 446.63 316.48 C 446.89 317.00 447.41 318.02 447.67 318.54 C 448.89 320.71 449.86 323.01 450.67 325.37 C 451.27 326.77 451.95 328.13 452.63 329.50 C 452.88 330.01 453.40 331.03 453.66 331.54 C 454.31 332.86 455.00 334.16 455.71 335.46 C 456.98 338.51 458.20 341.57 459.59 344.57 C 459.86 345.06 460.41 346.06 460.69 346.56 C 461.32 347.87 462.00 349.17 462.70 350.46 C 464.29 354.18 465.68 357.99 467.66 361.54 C 468.16 362.55 468.66 363.58 469.16 364.61 C 470.06 366.24 470.95 367.87 471.87 369.50 C 469.78 370.74 467.33 370.40 465.02 370.44 C 454.03 370.36 443.04 370.43 432.05 370.40 C 431.60 368.72 431.08 367.06 430.47 365.43 C 429.73 364.12 429.00 362.81 428.31 361.48 C 427.32 359.49 426.36 357.49 425.41 355.49 C 424.82 354.46 424.23 353.45 423.65 352.44 C 423.31 351.12 422.82 349.85 422.37 348.58 C 421.85 347.58 421.34 346.57 420.84 345.56 C 420.35 344.52 419.85 343.49 419.36 342.46 C 418.36 340.48 417.34 338.51 416.31 336.54 C 415.30 334.19 414.27 331.85 413.44 329.43 C 412.88 328.42 412.32 327.43 411.75 326.44 C 411.29 325.45 410.84 324.47 410.39 323.50 C 410.14 323.00 409.63 322.00 409.38 321.50 C 408.50 319.81 407.63 318.11 406.75 316.42 C 405.98 314.44 405.22 312.46 404.45 310.48 C 404.17 309.99 403.62 309.01 403.34 308.51 C 403.10 308.01 402.60 307.01 402.36 306.51 C 401.68 305.18 401.04 303.84 400.38 302.51 C 399.50 300.81 398.63 299.11 397.75 297.42 C 396.97 295.44 396.22 293.45 395.44 291.48 C 395.17 290.99 394.61 290.01 394.34 289.52 C 394.10 289.00 393.61 287.97 393.37 287.45 C 392.83 286.43 392.31 285.42 391.79 284.41 C 390.82 282.39 389.80 280.40 388.76 278.42 C 387.97 276.44 387.21 274.46 386.44 272.48 C 386.17 271.99 385.62 271.01 385.35 270.52 C 384.67 269.18 384.01 267.85 383.36 266.52 C 383.11 266.00 382.62 264.96 382.38 264.44 C 381.82 263.44 381.28 262.43 380.73 261.43 C 379.97 259.44 379.21 257.46 378.45 255.47 C 378.17 254.99 377.62 254.01 377.34 253.52 C 377.10 253.01 376.61 252.01 376.36 251.50 C 376.11 250.99 375.60 249.97 375.34 249.46 C 374.34 247.48 373.36 245.49 372.32 243.55 C 371.56 241.94 370.88 240.29 370.32 238.61 C 369.69 237.21 369.03 235.83 368.35 234.47 C 368.09 233.96 367.57 232.94 367.32 232.43 C 366.66 231.13 366.01 229.82 365.35 228.52 C 365.11 228.00 364.63 226.96 364.39 226.44 C 363.82 225.44 363.28 224.43 362.74 223.43 C 361.79 220.72 360.66 218.08 359.41 215.50 C 359.14 215.00 358.62 214.01 358.35 213.51 C 358.11 213.01 357.61 212.01 357.36 211.51 C 357.11 211.01 356.61 210.01 356.36 209.52 C 355.69 208.18 355.05 206.84 354.37 205.52 C 353.85 204.47 353.36 203.41 352.87 202.36 C 352.22 200.34 351.38 198.38 350.41 196.50 C 350.14 195.99 349.59 194.98 349.31 194.48 C 348.67 193.12 348.02 191.78 347.37 190.44 C 346.80 189.44 346.27 188.44 345.74 187.43 C 344.56 184.01 343.07 180.70 341.37 177.51 C 341.11 177.01 340.61 176.01 340.36 175.51 C 340.11 175.01 339.61 174.02 339.36 173.52 C 338.69 172.19 338.05 170.84 337.36 169.52 C 336.85 168.47 336.36 167.41 335.86 166.36 C 335.34 165.08 334.90 163.77 334.52 162.45 C 334.22 161.96 333.61 160.97 333.30 160.48 C 332.11 158.31 331.24 156.00 330.30 153.72 C 329.47 155.67 328.60 157.62 327.65 159.52 C 326.62 161.53 325.60 163.54 324.68 165.60 C 324.09 167.27 323.45 168.94 322.71 170.56 C 321.96 171.86 321.23 173.16 320.56 174.50 C 319.72 176.89 318.66 179.20 317.69 181.55 C 316.98 182.84 316.34 184.16 315.64 185.46 C 314.98 186.84 314.31 188.21 313.65 189.59 C 313.17 190.86 312.71 192.14 312.30 193.44 C 311.04 195.77 309.80 198.10 308.59 200.45 C 307.77 202.43 307.01 204.43 306.24 206.43 C 305.38 208.09 304.52 209.76 303.66 211.43 C 302.97 212.81 302.32 214.20 301.68 215.60 C 301.08 217.27 300.44 218.93 299.70 220.55 C 298.22 223.01 296.99 225.62 296.13 228.36 C 295.64 229.41 295.15 230.48 294.64 231.52 C 293.96 232.83 293.33 234.16 292.66 235.46 C 291.99 236.84 291.31 238.20 290.68 239.60 C 290.05 241.27 289.39 242.93 288.71 244.58 C 288.44 245.06 287.89 246.01 287.62 246.49 C 287.38 247.00 286.91 248.01 286.67 248.52 C 286.39 249.01 285.84 249.98 285.56 250.47 C 284.78 252.45 284.03 254.44 283.23 256.42 C 281.99 258.66 280.89 260.98 279.94 263.37 C 267.28 263.47 254.63 263.37 241.97 263.43 C 240.56 263.50 239.26 263.16 238.05 262.42 C 238.50 261.74 239.38 260.37 239.83 259.69 C 242.13 255.43 243.37 250.68 245.91 246.56 C 247.03 243.86 248.20 241.18 249.25 238.46 C 249.55 237.98 250.14 237.02 250.44 236.54 C 251.53 233.82 252.90 231.23 253.96 228.50 C 249.92 227.30 246.03 225.48 241.79 225.10 C 236.43 223.90 230.60 224.03 225.21 225.03 C 222.17 225.71 219.19 226.63 216.47 228.15 C 215.41 228.65 214.36 229.15 213.31 229.64 C 212.76 230.12 212.20 230.59 211.65 231.06 C 208.16 233.16 205.36 236.24 203.01 239.52 C 201.50 241.83 199.86 244.06 198.62 246.53 C 197.04 251.08 195.09 255.49 194.01 260.20 C 193.50 262.16 193.32 264.18 193.16 266.20 C 191.60 270.35 192.80 274.88 192.29 279.19 C 191.04 281.24 191.03 283.76 192.29 285.80 C 192.76 290.12 191.67 294.62 193.12 298.80 C 193.32 300.48 193.64 302.16 194.07 303.80 C 194.78 309.73 197.50 315.13 199.67 320.62 C 203.52 326.72 208.23 332.38 214.35 336.33 C 217.46 338.00 220.76 339.23 224.21 339.98 C 226.79 340.77 229.52 340.64 232.19 340.72 C 233.94 341.87 236.07 341.89 237.81 340.69 C 241.14 340.48 244.58 341.04 247.79 339.92 C 249.46 339.62 251.13 339.34 252.80 339.01 C 256.44 338.03 260.03 336.89 263.53 335.46 C 264.02 335.18 264.99 334.62 265.48 334.34 C 266.86 333.64 268.26 332.99 269.66 332.33 C 271.92 330.56 274.25 328.87 276.64 327.29 C 279.24 324.82 282.17 322.55 283.93 319.36 C 284.40 318.79 284.87 318.23 285.35 317.68 C 286.16 315.98 286.97 314.28 287.76 312.57 C 288.30 311.56 288.83 310.55 289.37 309.56 C 289.61 309.04 290.10 308.01 290.34 307.50 C 290.59 307.00 291.11 305.99 291.36 305.49 C 293.33 301.99 294.69 298.21 296.24 294.53 C 296.52 294.03 297.08 293.03 297.36 292.54 C 298.02 291.20 298.66 289.86 299.33 288.53 C 300.00 287.20 300.67 285.87 301.36 284.55 C 302.03 283.16 302.70 281.77 303.34 280.37 C 304.11 278.00 305.10 275.71 306.33 273.54 C 306.59 273.03 307.09 272.01 307.35 271.50 C 307.60 271.00 308.11 270.00 308.36 269.49 C 308.61 268.99 309.12 267.99 309.37 267.49 C 311.08 264.30 312.56 261.00 313.71 257.57 C 314.26 256.57 314.80 255.55 315.38 254.57 C 315.62 254.05 316.08 253.02 316.31 252.51 C 316.58 252.00 317.10 251.00 317.36 250.50 C 317.61 250.00 318.12 248.99 318.37 248.49 C 320.52 244.68 321.89 240.51 323.74 236.56 C 324.29 235.56 324.82 234.55 325.35 233.55 C 326.01 232.22 326.67 230.89 327.33 229.56 C 327.55 229.03 328.00 227.98 328.22 227.46 C 329.03 226.32 329.88 225.22 330.71 224.10 C 331.32 225.56 331.96 227.03 332.57 228.51 C 332.84 229.00 333.37 230.00 333.64 230.50 C 333.91 230.99 334.46 231.97 334.73 232.46 C 335.98 235.51 337.21 238.57 338.58 241.57 C 338.86 242.06 339.43 243.05 339.71 243.55 C 340.34 244.86 340.98 246.17 341.63 247.49 C 342.30 248.81 342.97 250.15 343.64 251.48 C 343.89 251.99 344.38 253.00 344.63 253.51 C 344.90 254.00 345.45 254.97 345.73 255.46 C 347.26 259.19 348.70 262.97 350.60 266.53 C 351.27 267.65 351.89 268.80 352.56 269.94 C 351.21 272.32 350.08 274.81 349.25 277.42 C 347.60 280.27 346.32 283.31 345.27 286.43 C 344.72 287.43 344.18 288.44 343.62 289.44 C 343.36 289.95 342.85 290.98 342.59 291.49 C 341.79 293.48 340.96 295.46 340.16 297.45 C 339.75 298.51 339.34 299.57 338.95 300.65 C 347.85 300.47 356.76 300.76 365.65 300.47 C 367.92 303.06 368.63 306.52 370.10 309.56 C 370.61 310.53 371.13 311.51 371.64 312.49 C 371.89 312.99 372.39 313.99 372.64 314.50 C 372.89 315.00 373.39 316.00 373.64 316.50 C 373.90 317.00 374.40 317.99 374.66 318.49 C 374.89 319.01 375.37 320.05 375.61 320.57 C 376.18 321.55 376.73 322.57 377.29 323.57 C 378.44 327.00 379.91 330.31 381.64 333.48 C 381.87 333.99 382.33 335.02 382.56 335.53 C 383.33 336.84 384.14 338.13 384.92 339.45 C 382.83 340.78 380.33 340.38 377.99 340.44 C 358.15 340.30 338.31 340.56 318.47 340.31 C 317.22 343.39 316.03 346.50 314.68 349.54 C 313.99 350.85 313.32 352.18 312.63 353.50 C 312.39 354.00 311.90 355.01 311.66 355.51 C 311.39 356.01 310.83 356.99 310.55 357.48 C 309.78 359.46 309.01 361.44 308.25 363.43 C 307.53 364.80 306.80 366.17 306.06 367.54 C 305.80 368.25 305.28 369.66 305.02 370.37 C 290.04 370.28 275.03 370.74 260.06 370.13 C 261.12 369.04 262.21 367.97 263.29 366.90 C 261.94 367.36 260.59 367.79 259.21 368.12 C 257.49 368.29 255.79 368.59 254.18 369.22 C 251.82 369.38 249.35 369.16 247.18 370.27 C 238.07 370.49 228.93 370.52 219.82 370.26 C 217.41 369.19 214.68 369.50 212.22 368.60 C 211.62 368.50 210.41 368.29 209.81 368.19 C 207.43 367.55 205.08 366.77 202.69 366.18 C 199.96 364.96 197.19 363.86 194.46 362.66 C 193.42 362.16 192.37 361.68 191.32 361.21 C 190.78 360.70 190.25 360.19 189.72 359.69 C 187.45 358.77 185.37 357.48 183.59 355.79 C 178.56 351.99 174.10 347.33 170.15 342.44 C 169.51 341.44 168.87 340.44 168.26 339.44 C 167.56 338.44 166.87 337.44 166.18 336.45 C 164.49 333.89 163.13 331.14 161.73 328.43 C 160.11 323.70 158.00 319.12 156.92 314.23 C 156.61 312.86 156.15 311.53 155.83 310.16 C 155.72 309.57 155.51 308.37 155.41 307.78 C 154.48 305.32 154.85 302.57 153.73 300.18 C 153.72 294.78 153.37 289.41 152.96 284.04 C 153.37 278.65 153.71 273.25 153.73 267.83 C 154.82 265.42 154.50 262.68 155.40 260.22 C 155.50 259.62 155.71 258.42 155.81 257.82 C 157.92 249.79 160.68 241.92 164.28 234.44 C 164.94 233.49 165.61 232.55 166.24 231.59 C 168.18 227.42 171.45 224.16 174.17 220.53 C 177.63 215.40 183.08 212.25 187.53 208.09 C 189.22 207.13 190.88 206.14 192.59 205.21 C 193.92 204.41 195.20 203.52 196.50 202.67 C 198.95 201.90 201.35 200.96 203.67 199.87 C 206.47 198.78 209.40 198.11 212.27 197.23 C 214.52 197.15 216.64 196.29 218.82 195.80 C 221.17 195.60 223.65 195.84 225.82 194.73 C 231.93 194.50 238.06 194.51 244.18 194.73 C 246.35 195.84 248.82 195.60 251.18 195.79 C 254.92 196.81 258.75 197.49 262.42 198.77 C 263.65 199.49 264.90 200.19 266.15 200.90 C 266.45 200.61 267.05 200.03 267.34 199.74 C 267.71 197.89 268.49 196.16 269.30 194.48 C 271.38 191.01 272.69 187.16 274.28 183.46 C 274.82 182.50 275.37 181.53 275.92 180.57 C 277.37 177.22 278.58 173.77 280.29 170.55 C 280.57 170.05 281.14 169.07 281.42 168.57 C 282.80 165.60 283.99 162.54 285.25 159.52 C 285.52 159.03 286.05 158.05 286.32 157.56 C 286.59 157.06 287.14 156.07 287.42 155.57 C 288.80 152.57 290.02 149.50 291.30 146.45 C 293.72 142.34 295.46 137.90 297.26 133.49 C 297.98 132.19 298.69 130.88 299.40 129.57 C 300.64 126.96 301.78 124.31 302.72 121.57 C 303.26 120.56 303.79 119.55 304.37 118.56 C 306.29 115.01 307.69 111.23 309.25 107.52 C 309.52 107.03 310.07 106.06 310.34 105.57 C 310.58 105.06 311.06 104.05 311.30 103.54 C 311.58 103.05 312.13 102.06 312.41 101.56 C 313.64 98.96 314.79 96.31 315.72 93.58 C 316.26 92.58 316.79 91.57 317.36 90.59 C 317.61 90.07 318.09 89.04 318.34 88.52 C 320.33 85.00 321.71 81.18 323.29 77.46 C 324.00 76.17 324.68 74.86 325.34 73.54 C 325.60 73.03 326.14 72.01 326.40 71.50 Z" />
<path fill="#000000" opacity="1.00" d=" M 458.51 98.54 C 459.48 97.17 460.48 95.81 461.43 94.42 C 462.46 95.72 463.40 97.10 464.31 98.49 C 464.76 99.53 465.21 100.56 465.66 101.59 C 466.32 102.55 467.00 103.50 467.72 104.42 C 468.23 105.47 468.72 106.53 469.22 107.59 C 469.68 108.64 470.14 109.69 470.61 110.74 C 471.14 111.25 471.67 111.77 472.21 112.29 C 472.67 113.35 473.14 114.42 473.62 115.48 C 474.27 116.91 474.97 118.32 475.68 119.73 C 476.19 120.25 476.70 120.78 477.22 121.31 C 477.67 122.37 478.13 123.43 478.59 124.49 C 479.27 125.88 480.01 127.23 480.76 128.59 C 481.57 129.87 482.37 131.16 483.25 132.41 C 483.55 133.13 483.87 133.86 484.21 134.57 C 484.67 135.63 485.14 136.68 485.61 137.74 C 486.14 138.25 486.67 138.77 487.21 139.30 C 487.68 140.37 488.16 141.45 488.64 142.53 C 489.30 143.94 489.99 145.33 490.68 146.73 C 491.18 147.25 491.69 147.78 492.21 148.30 C 492.67 149.37 493.13 150.44 493.60 151.51 C 493.84 152.03 494.32 153.07 494.56 153.59 C 496.07 155.80 497.36 158.15 498.74 160.45 C 498.93 160.99 499.31 162.09 499.49 162.63 C 500.38 163.90 501.25 165.17 502.12 166.45 C 502.62 167.46 503.12 168.47 503.62 169.49 C 504.29 170.87 505.00 172.24 505.75 173.59 C 506.87 175.14 507.85 176.79 508.72 178.50 C 509.34 179.89 510.00 181.26 510.73 182.60 C 511.88 184.12 512.83 185.78 513.71 187.47 C 513.95 187.98 514.41 189.00 514.64 189.50 C 514.90 190.03 515.44 191.09 515.70 191.61 C 516.38 192.54 517.06 193.47 517.76 194.39 C 517.98 194.94 518.42 196.05 518.63 196.60 C 519.61 198.65 520.74 200.64 522.13 202.45 C 522.64 203.46 523.14 204.48 523.65 205.50 C 523.88 206.03 524.33 207.07 524.55 207.60 C 526.08 209.79 527.36 212.15 528.72 214.45 C 528.94 214.96 529.39 215.98 529.61 216.49 C 530.33 217.84 531.01 219.22 531.71 220.59 C 532.36 221.55 533.02 222.49 533.71 223.43 C 534.22 224.47 534.71 225.53 535.20 226.59 C 535.70 227.60 536.20 228.60 536.72 229.60 C 537.55 230.87 538.39 232.13 539.29 233.36 C 539.67 234.46 540.07 235.54 540.48 236.64 C 541.36 237.90 542.24 239.18 543.11 240.45 C 543.97 242.12 544.82 243.79 545.62 245.49 C 546.30 246.87 547.01 248.24 547.74 249.60 C 548.88 251.12 549.82 252.79 550.71 254.48 C 550.95 254.99 551.42 256.03 551.66 256.54 C 552.32 257.90 553.03 259.25 553.74 260.59 C 554.57 261.87 555.38 263.15 556.27 264.40 C 556.55 265.13 556.85 265.86 557.18 266.59 C 557.68 267.60 558.19 268.60 558.72 269.60 C 559.87 271.12 560.84 272.77 561.71 274.47 C 561.94 274.98 562.40 276.00 562.63 276.50 C 562.89 277.00 563.41 277.99 563.68 278.48 C 563.90 279.01 564.34 280.07 564.56 280.60 C 566.07 282.80 567.39 285.13 568.70 287.46 C 568.94 287.96 569.42 288.97 569.66 289.47 C 570.31 290.89 570.96 292.32 571.66 293.73 C 572.17 294.25 572.69 294.77 573.22 295.30 C 573.67 296.37 574.12 297.44 574.59 298.52 C 574.86 299.02 575.39 300.03 575.66 300.54 C 576.33 301.86 577.01 303.19 577.69 304.52 C 578.34 305.92 578.98 307.32 579.66 308.72 C 580.16 309.24 580.66 309.77 581.18 310.31 C 581.97 312.04 582.79 313.77 583.59 315.50 C 583.86 316.01 584.40 317.02 584.66 317.53 C 584.92 318.04 585.43 319.06 585.69 319.56 C 586.33 320.87 586.99 322.18 587.63 323.50 C 588.63 325.53 589.61 327.58 590.82 329.50 C 590.65 328.00 590.27 326.56 589.73 325.17 C 588.91 319.22 590.77 312.90 588.73 307.19 C 588.50 280.07 588.50 252.93 588.73 225.81 C 589.87 223.66 589.59 221.17 589.80 218.83 C 590.27 216.64 591.14 214.52 591.23 212.27 C 593.01 205.47 595.50 198.88 598.30 192.45 C 598.57 191.96 599.10 190.99 599.37 190.50 C 599.62 190.00 600.12 189.01 600.38 188.51 C 600.86 187.48 601.36 186.45 601.86 185.43 C 603.73 182.88 605.50 180.26 607.19 177.58 C 608.90 175.30 610.56 172.98 612.22 170.67 C 613.87 168.29 615.60 165.97 617.28 163.61 C 618.62 161.22 620.21 158.97 622.05 156.93 C 622.59 161.26 622.40 165.63 622.41 169.98 C 622.41 225.67 622.40 281.37 622.41 337.06 C 622.28 338.29 622.05 339.51 621.74 340.73 C 621.04 343.76 620.16 346.78 618.65 349.53 C 618.00 350.84 617.36 352.17 616.71 353.49 C 616.09 354.47 615.47 355.44 614.87 356.42 C 611.92 360.35 608.40 363.92 604.44 366.84 C 603.47 367.46 602.51 368.10 601.55 368.72 C 601.02 368.96 599.96 369.44 599.43 369.67 C 593.33 373.44 586.26 374.41 579.32 375.38 C 578.55 374.48 577.85 373.53 577.22 372.54 C 576.75 371.49 576.28 370.44 575.81 369.40 C 575.31 368.42 574.82 367.45 574.34 366.48 C 574.11 365.95 573.67 364.88 573.45 364.35 C 572.59 363.08 571.74 361.81 570.87 360.55 C 570.36 359.51 569.86 358.48 569.38 357.44 C 568.83 356.43 568.29 355.42 567.75 354.41 C 567.27 353.40 566.78 352.39 566.30 351.39 C 565.08 349.91 564.17 348.22 563.30 346.53 C 563.07 346.03 562.61 345.02 562.38 344.51 C 561.67 343.13 560.99 341.75 560.26 340.40 C 558.62 338.26 557.43 335.83 556.27 333.41 C 555.15 331.85 554.13 330.22 553.25 328.52 C 552.64 327.09 552.02 325.66 551.35 324.27 C 550.82 323.74 550.30 323.21 549.79 322.69 C 549.00 320.88 548.18 319.08 547.39 317.27 C 546.85 316.74 546.31 316.21 545.78 315.69 C 545.00 313.87 544.18 312.07 543.39 310.26 C 542.84 309.74 542.30 309.22 541.77 308.71 C 541.32 307.63 540.87 306.55 540.42 305.48 C 540.12 304.96 539.54 303.91 539.24 303.39 C 538.40 302.08 537.55 300.78 536.69 299.49 C 536.23 298.45 535.78 297.40 535.34 296.36 C 534.63 295.42 533.93 294.49 533.25 293.54 C 532.61 292.15 531.96 290.77 531.30 289.40 C 530.44 288.15 529.60 286.89 528.76 285.64 C 528.30 284.55 527.81 283.47 527.33 282.39 C 525.60 280.30 524.44 277.84 523.27 275.41 C 522.09 273.84 521.13 272.14 520.20 270.42 C 518.63 268.20 517.35 265.79 516.36 263.27 C 515.82 262.74 515.30 262.22 514.78 261.71 C 514.29 260.59 513.82 259.48 513.35 258.36 C 512.63 257.42 511.93 256.48 511.25 255.53 C 510.61 254.14 509.96 252.77 509.30 251.40 C 508.07 249.86 507.10 248.14 506.25 246.38 C 505.57 245.43 504.89 244.49 504.23 243.55 C 504.03 243.00 503.63 241.91 503.43 241.37 C 501.85 239.15 500.58 236.75 499.20 234.42 C 498.10 232.81 497.13 231.12 496.20 229.42 C 494.70 227.20 493.40 224.86 492.27 222.43 C 491.66 221.45 491.02 220.50 490.38 219.55 C 489.62 218.16 488.84 216.79 487.87 215.55 C 487.34 214.50 486.80 213.45 486.28 212.40 C 485.44 211.14 484.60 209.89 483.76 208.65 C 483.30 207.55 482.81 206.47 482.33 205.40 C 481.11 203.86 480.11 202.17 479.22 200.43 C 478.61 199.44 478.00 198.47 477.36 197.52 C 476.39 195.81 475.39 194.11 474.31 192.47 C 473.63 191.11 472.96 189.75 472.28 188.40 C 471.09 186.85 470.13 185.13 469.20 183.42 C 467.67 181.21 466.37 178.85 465.30 176.39 C 464.63 175.43 463.97 174.48 463.31 173.53 C 462.69 172.29 462.04 171.08 461.47 169.84 C 459.77 172.89 458.43 176.13 457.25 179.42 C 456.71 180.46 456.19 181.52 455.66 182.57 C 455.02 184.24 454.45 185.93 453.70 187.55 C 452.97 188.88 452.28 190.22 451.63 191.59 C 451.15 192.86 450.76 194.16 450.33 195.45 C 449.73 196.44 449.14 197.43 448.54 198.41 C 447.80 200.42 447.05 202.42 446.22 204.39 C 445.35 205.97 444.60 207.62 444.15 209.37 C 443.63 210.41 443.13 211.47 442.60 212.51 C 441.28 215.07 440.19 217.75 439.33 220.50 C 438.35 221.98 437.33 223.43 436.36 224.92 C 435.07 222.09 433.87 219.22 432.31 216.54 C 431.54 214.94 430.89 213.28 430.32 211.60 C 429.70 210.22 429.04 208.86 428.37 207.51 C 427.68 206.18 427.02 204.85 426.36 203.52 C 426.11 203.00 425.61 201.97 425.35 201.45 C 424.48 199.78 423.64 198.08 422.88 196.35 C 421.99 192.96 419.18 189.90 420.17 186.22 C 425.60 174.01 431.11 161.84 436.32 149.53 C 438.09 146.31 439.10 142.75 440.86 139.53 C 442.68 135.48 444.26 131.32 446.35 127.39 C 447.29 124.22 448.94 121.35 450.36 118.39 C 452.90 112.29 455.36 106.09 458.60 100.31 C 458.58 99.87 458.53 98.98 458.51 98.54 Z" />
<path fill="#000000" opacity="1.00" d=" M 23.49 211.50 C 36.26 199.12 54.66 194.63 72.03 194.97 C 86.45 194.49 101.25 196.90 114.03 203.84 C 120.48 207.94 126.82 212.70 130.84 219.34 C 135.42 226.95 138.97 235.42 139.59 244.37 C 126.99 244.48 114.39 244.35 101.79 244.43 C 101.37 242.46 100.90 240.49 100.38 238.54 C 98.61 234.97 96.84 231.17 93.61 228.68 C 89.09 225.28 83.51 223.61 77.93 223.15 C 71.01 221.75 63.99 223.49 57.40 225.59 C 55.19 227.17 52.82 228.69 51.45 231.13 C 48.00 235.48 49.83 241.29 49.37 246.36 C 50.45 248.23 51.27 250.34 52.87 251.86 C 59.68 257.16 68.07 259.64 76.32 261.69 C 92.02 265.50 108.07 269.38 121.99 277.91 C 127.59 281.21 132.15 285.94 136.45 290.74 C 145.76 304.60 146.57 323.13 140.22 338.36 C 135.55 349.55 125.98 358.12 115.19 363.30 C 105.58 367.22 95.38 369.94 84.99 370.44 C 77.96 370.29 70.91 370.62 63.89 370.29 C 52.57 368.87 41.09 366.04 31.51 359.60 C 22.08 353.71 14.94 344.85 9.33 335.38 C 6.70 330.55 5.09 325.26 2.91 320.23 C 1.90 316.50 0.77 312.81 0.00 309.03 L 0.00 307.36 C 12.85 310.77 25.85 313.54 38.74 316.76 C 42.57 319.87 44.64 324.35 46.80 328.65 C 51.26 337.08 61.04 340.82 70.05 341.78 C 78.57 343.57 87.43 342.10 95.59 339.39 C 99.69 336.57 104.20 333.30 105.19 328.07 C 106.55 321.04 105.60 312.42 99.62 307.71 C 84.52 297.19 65.36 296.80 48.62 290.25 C 42.51 287.71 36.12 285.60 30.63 281.81 C 23.00 276.68 15.64 270.04 13.04 260.91 C 9.06 250.56 10.24 239.15 12.81 228.62 C 15.88 222.64 18.39 216.13 23.49 211.50 Z" />
<path fill="#000000" opacity="1.00" d=" M 1018.82 195.79 C 1030.25 194.73 1041.75 194.67 1053.18 195.80 C 1059.74 197.30 1066.26 199.03 1072.43 201.78 C 1073.13 202.12 1073.84 202.46 1074.58 202.79 C 1076.89 204.19 1079.15 205.68 1081.42 207.16 C 1085.39 210.05 1088.88 213.63 1091.85 217.53 C 1092.47 218.56 1093.10 219.57 1093.76 220.59 C 1094.41 221.55 1095.07 222.51 1095.73 223.48 C 1098.04 227.82 1099.55 232.51 1100.75 237.27 C 1101.38 239.56 1101.53 241.92 1101.47 244.30 C 1093.31 244.53 1085.16 244.35 1077.01 244.43 C 1073.23 244.54 1069.62 243.06 1066.60 240.87 C 1064.42 239.47 1062.49 237.71 1061.13 235.49 C 1060.55 234.42 1059.95 233.37 1059.32 232.35 C 1057.63 230.40 1055.79 228.60 1053.74 227.05 C 1053.18 226.85 1052.05 226.44 1051.49 226.24 C 1050.43 225.62 1049.39 225.03 1048.36 224.42 C 1047.73 224.38 1046.47 224.29 1045.84 224.25 C 1043.34 223.00 1040.48 223.44 1037.81 223.28 C 1035.75 222.04 1033.27 222.08 1031.20 223.22 C 1026.65 222.99 1022.28 224.36 1018.43 226.71 C 1017.48 227.33 1016.41 227.84 1015.81 228.83 C 1014.89 229.49 1014.24 230.43 1013.81 231.46 C 1012.97 232.81 1012.16 234.18 1011.47 235.60 C 1011.51 239.89 1010.68 244.46 1012.67 248.46 C 1014.72 251.30 1017.36 253.75 1020.45 255.46 C 1021.84 256.07 1023.23 256.71 1024.62 257.36 C 1029.51 258.82 1034.26 260.74 1039.22 261.99 C 1040.58 262.17 1041.90 262.51 1043.20 263.03 C 1053.23 264.78 1062.84 268.36 1072.44 271.71 C 1073.42 272.26 1074.41 272.80 1075.42 273.36 C 1075.93 273.60 1076.96 274.09 1077.48 274.34 C 1078.79 275.01 1080.14 275.65 1081.50 276.28 C 1083.16 277.18 1084.80 278.13 1086.43 279.11 C 1087.71 280.19 1089.05 281.22 1090.45 282.18 C 1093.01 283.83 1095.27 285.93 1096.76 288.62 C 1098.15 290.14 1099.47 291.73 1100.77 293.34 C 1101.00 293.88 1101.46 294.97 1101.69 295.51 C 1104.39 300.24 1104.99 305.66 1106.26 310.82 C 1106.49 315.60 1106.51 320.40 1106.25 325.18 C 1105.69 327.34 1104.85 329.47 1104.79 331.73 C 1103.50 336.21 1101.88 340.65 1099.20 344.50 C 1097.71 347.73 1094.88 349.97 1092.45 352.45 C 1090.17 354.67 1088.15 357.23 1085.32 358.79 C 1084.75 359.25 1084.19 359.73 1083.66 360.22 C 1082.59 360.67 1081.52 361.12 1080.47 361.58 C 1079.99 361.87 1079.04 362.43 1078.56 362.72 C 1075.79 363.83 1073.02 364.94 1070.32 366.20 C 1068.44 366.70 1066.58 367.24 1064.72 367.75 C 1062.47 367.88 1060.37 368.76 1058.18 369.15 C 1056.13 369.33 1054.05 369.35 1052.18 370.26 C 1042.07 370.50 1031.93 370.51 1021.82 370.26 C 1019.94 369.35 1017.83 369.33 1015.81 369.14 C 1013.61 368.76 1011.50 367.85 1009.27 367.76 C 1005.24 366.72 1001.25 365.55 997.50 363.73 C 997.00 363.46 996.01 362.91 995.51 362.64 C 995.01 362.39 994.00 361.88 993.50 361.63 C 992.99 361.39 991.97 360.93 991.47 360.69 C 989.31 359.70 987.38 358.32 985.57 356.81 C 980.46 353.37 976.75 348.35 973.15 343.45 C 972.10 341.86 971.20 340.19 970.34 338.51 C 969.79 337.48 969.25 336.45 968.73 335.43 C 966.24 329.04 963.94 322.48 963.87 315.55 C 965.30 315.60 966.74 315.66 968.18 315.74 C 972.92 317.64 978.22 316.02 983.19 316.73 C 985.89 318.17 989.03 317.44 991.97 317.58 C 994.97 317.35 997.72 318.71 1000.50 319.65 C 1003.50 321.28 1006.00 323.67 1007.85 326.54 C 1008.47 327.56 1009.09 328.57 1009.74 329.60 C 1011.64 333.81 1015.83 335.82 1019.46 338.28 C 1021.27 338.84 1023.03 339.58 1024.71 340.52 C 1025.32 340.58 1026.54 340.70 1027.15 340.77 C 1029.34 341.82 1031.81 341.62 1034.18 341.77 C 1037.83 343.12 1042.14 343.10 1045.81 341.79 C 1049.86 342.01 1053.66 340.63 1057.46 339.44 C 1058.76 338.63 1060.09 337.86 1061.46 337.14 C 1063.15 336.03 1064.21 334.30 1065.30 332.64 C 1065.83 331.61 1066.40 330.60 1067.01 329.60 C 1068.00 323.63 1068.51 316.85 1065.30 311.42 C 1062.81 307.98 1059.20 305.55 1055.47 303.63 C 1049.95 301.62 1044.48 299.45 1038.79 298.00 C 1037.41 297.83 1036.07 297.46 1034.80 296.98 C 1033.42 296.82 1032.06 296.49 1030.80 295.99 C 1029.42 295.78 1028.06 295.50 1026.77 295.06 C 1018.47 292.85 1010.13 290.41 1002.37 286.68 C 1000.35 285.93 998.33 285.18 996.42 284.18 C 994.87 282.96 993.22 281.88 991.60 280.78 C 986.19 277.46 981.70 272.98 978.34 267.61 C 977.51 265.85 976.65 264.11 975.68 262.44 C 975.21 260.86 974.72 259.28 974.20 257.72 C 974.12 255.47 973.31 253.34 972.76 251.18 C 972.49 247.40 972.51 243.60 972.74 239.82 C 973.64 237.94 973.68 235.84 973.82 233.79 C 974.71 230.29 975.63 226.75 977.24 223.48 C 978.18 221.83 979.12 220.17 980.14 218.55 C 983.07 214.93 985.39 210.59 989.56 208.20 C 990.88 207.19 992.22 206.18 993.54 205.15 C 994.51 204.55 995.48 203.95 996.47 203.35 C 997.48 202.79 998.53 202.27 999.59 201.76 C 1003.79 200.19 1007.85 198.17 1012.28 197.24 C 1014.51 197.11 1016.64 196.30 1018.82 195.79 Z" />
<path fill="#000000" opacity="1.00" d=" M 648.00 200.00 C 673.00 199.99 698.00 200.02 723.00 199.99 C 726.41 200.04 729.81 200.46 733.20 200.86 C 735.40 201.23 737.48 202.16 739.73 202.24 C 745.17 203.47 750.26 205.73 755.43 207.78 C 756.14 208.12 756.86 208.45 757.60 208.77 C 758.86 209.59 760.14 210.42 761.44 211.20 C 762.43 211.86 763.44 212.53 764.44 213.21 C 770.61 217.47 776.25 222.62 780.83 228.56 C 781.83 229.89 782.78 231.27 783.90 232.53 C 784.88 234.20 785.83 235.89 786.79 237.59 C 791.06 243.95 793.09 251.52 795.20 258.82 C 795.29 259.42 795.49 260.62 795.59 261.22 C 796.50 263.68 796.18 266.41 797.26 268.82 C 797.51 278.27 797.50 287.73 797.26 297.18 C 796.19 299.59 796.50 302.31 795.61 304.78 C 795.50 305.38 795.30 306.58 795.19 307.19 C 793.81 312.34 792.20 317.44 790.29 322.44 C 789.73 323.43 789.17 324.44 788.63 325.44 C 787.96 326.78 787.31 328.12 786.65 329.47 C 786.01 330.81 785.37 332.16 784.71 333.50 C 784.09 334.48 783.46 335.45 782.86 336.43 C 777.00 344.10 770.55 351.55 762.33 356.77 C 761.76 357.24 761.20 357.73 760.66 358.22 C 759.59 358.67 758.53 359.13 757.48 359.60 C 756.97 359.86 755.96 360.38 755.45 360.64 C 754.43 361.17 753.42 361.69 752.42 362.22 C 751.45 362.70 750.49 363.19 749.54 363.68 C 747.89 364.38 746.27 365.12 744.61 365.76 C 743.15 366.21 741.71 366.66 740.27 367.14 C 738.87 367.41 737.52 367.81 736.17 368.17 C 735.57 368.28 734.37 368.49 733.77 368.60 C 731.03 369.79 727.87 368.91 725.18 370.26 C 699.46 370.60 673.73 370.31 648.00 370.41 C 648.00 313.60 648.00 256.80 648.00 200.00 M 685.30 230.30 C 685.48 266.77 685.48 303.23 685.30 339.70 C 694.52 339.47 703.74 339.65 712.95 339.59 C 716.56 339.51 720.27 340.04 723.80 338.98 C 726.67 338.14 729.57 337.39 732.40 336.37 C 733.80 335.68 735.22 335.00 736.64 334.31 C 742.00 330.69 746.66 325.98 750.33 320.65 C 750.80 319.62 751.28 318.61 751.79 317.60 C 754.32 313.01 756.23 308.01 756.93 302.80 C 757.36 301.15 757.66 299.47 757.91 297.80 C 759.31 293.32 758.32 288.56 758.58 283.96 C 758.33 279.38 759.29 274.65 757.92 270.20 C 757.62 268.53 757.34 266.86 757.01 265.20 C 756.11 262.33 755.39 259.42 754.38 256.59 C 753.83 255.53 753.30 254.48 752.77 253.43 C 752.28 252.39 751.81 251.37 751.35 250.34 C 749.57 248.07 747.83 245.78 746.32 243.33 C 745.43 242.44 744.55 241.56 743.67 240.68 C 741.23 239.15 738.90 237.44 736.67 235.63 C 732.58 233.56 728.22 232.14 723.79 231.02 C 722.57 230.71 721.33 230.41 720.08 230.39 C 708.49 230.35 696.89 230.54 685.30 230.30 Z" />
<path fill="#000000" opacity="1.00" d=" M 818.00 200.00 C 858.54 200.01 899.09 199.98 939.63 200.02 C 939.40 201.60 939.01 203.16 938.75 204.74 C 938.04 207.78 937.08 210.75 935.73 213.57 C 933.71 216.92 931.76 220.63 928.41 222.83 C 924.47 226.22 919.97 228.99 914.73 229.74 C 913.14 230.05 911.58 230.56 909.96 230.44 C 891.41 230.30 872.85 230.56 854.30 230.30 C 854.48 242.43 854.47 254.57 854.30 266.70 C 881.34 266.53 908.38 266.50 935.42 266.71 C 935.34 276.94 935.52 287.17 935.32 297.40 C 908.31 297.35 881.31 297.54 854.30 297.30 C 854.48 311.43 854.47 325.57 854.30 339.70 C 884.39 339.52 914.49 339.52 944.58 339.70 C 943.04 341.91 943.41 344.64 943.24 347.18 C 942.16 349.35 942.38 351.82 942.21 354.18 C 940.84 357.59 941.76 361.48 940.01 364.80 C 939.22 367.58 936.67 369.09 934.36 370.46 C 895.57 370.34 856.79 370.44 818.00 370.41 C 818.00 313.60 818.00 256.80 818.00 200.00 Z" />
</g>
</svg>
